<svg xmlns="http://www.w3.org/2000/svg" width="48" height="48" viewBox="0 0 48 48" fill="none" role="img" aria-label="Bíblia"><defs><linearGradient id="parishIconBg" x1="5" y1="4" x2="43" y2="45" gradientUnits="userSpaceOnUse"><stop stop-color="#E4EDF6"/><stop offset="1" stop-color="#FBF7EE"/></linearGradient></defs><rect x="2" y="2" width="44" height="44" rx="14" fill="url(#parishIconBg)" stroke="#BAD1E7" stroke-width="1"/><g transform="translate(7.2 7.2) scale(1.4)" fill="none" stroke="#075AA9" stroke-width="1.8" stroke-linecap="round" stroke-linejoin="round"><path d="M3 5.5c3-1 6-.5 9 1.5v13c-3-2-6-2.5-9-1.5v-13ZM21 5.5c-3-1-6-.5-9 1.5M21 5.5v13c-3-1-6-.5-9 1.5M16.5 9v5M14 11.5h5"/></g><g transform="translate(7.2 7.2) scale(1.4)" fill="none" stroke="#D8A83E" stroke-width="1.9" stroke-linecap="round" stroke-linejoin="round"><path d="M16.5 9v5M14 11.5h5"/></g></svg>
