<svg xmlns="http://www.w3.org/2000/svg" width="48" height="48" viewBox="0 0 48 48" fill="none" role="img" aria-label="Confissão"><defs><linearGradient id="parishIconBg" x1="5" y1="4" x2="43" y2="45" gradientUnits="userSpaceOnUse"><stop stop-color="#EFEAF5"/><stop offset="1" stop-color="#FAF1F4"/></linearGradient></defs><rect x="2" y="2" width="44" height="44" rx="14" fill="url(#parishIconBg)" stroke="#D6CAE6" stroke-width="1"/><g transform="translate(7.2 7.2) scale(1.4)" fill="none" stroke="#6D43A5" stroke-width="1.8" stroke-linecap="round" stroke-linejoin="round"><path d="M12 4v16M9 6h6M5 10a2 2 0 1 0 0-4 2 2 0 0 0 0 4ZM19 10a2 2 0 1 0 0-4 2 2 0 0 0 0 4ZM2 19v-3a3 3 0 0 1 3-3h2M22 19v-3a3 3 0 0 0-3-3h-2"/></g><g transform="translate(7.2 7.2) scale(1.4)" fill="none" stroke="#C45F83" stroke-width="1.9" stroke-linecap="round" stroke-linejoin="round"><path d="M12 4v16M9 6h6"/></g></svg>
