<svg xmlns="http://www.w3.org/2000/svg" width="48" height="48" viewBox="0 0 48 48" fill="none" role="img" aria-label="Dízimo"><defs><linearGradient id="parishIconBg" x1="5" y1="4" x2="43" y2="45" gradientUnits="userSpaceOnUse"><stop stop-color="#F9EDF1"/><stop offset="1" stop-color="#FBF7EE"/></linearGradient></defs><rect x="2" y="2" width="44" height="44" rx="14" fill="url(#parishIconBg)" stroke="#EED2DC" stroke-width="1"/><g transform="translate(7.2 7.2) scale(1.4)" fill="none" stroke="#C45F83" stroke-width="1.8" stroke-linecap="round" stroke-linejoin="round"><path d="M12 21S4 16.5 4 10a4 4 0 0 1 7-2.7A4 4 0 0 1 20 10c0 6.5-8 11-8 11Z"/><circle cx="12" cy="11" r="2.5"/><path d="M12 9.5v3M10.5 11h3"/></g><g transform="translate(7.2 7.2) scale(1.4)" fill="none" stroke="#D8A83E" stroke-width="1.9" stroke-linecap="round" stroke-linejoin="round"><circle cx="12" cy="11" r="2.5"/><path d="M12 9.5v3M10.5 11h3"/></g></svg>
